<svg xmlns="http://www.w3.org/2000/svg" viewBox="0 0 1200 280" width="1200" height="280">
  <defs>
    <pattern id="grid" width="40" height="40" patternUnits="userSpaceOnUse">
      <path d="M 40 0 L 0 0 0 40" fill="none" stroke="#a855f7" stroke-width="0.4" opacity="0.12"/>
    </pattern>
    <linearGradient id="bar" x1="0%" y1="0%" x2="100%" y2="0%">
      <stop offset="0%" stop-color="#6c3bff"/>
      <stop offset="50%" stop-color="#a855f7"/>
      <stop offset="100%" stop-color="#06b6d4"/>
    </linearGradient>
  </defs>
  <rect width="1200" height="280" fill="#08080f"/>
  <rect width="1200" height="280" fill="url(#grid)"/>
  <line x1="56" y1="0" x2="56" y2="280" stroke="#6c3bff" stroke-width="1" opacity="0.3"/>
  <circle cx="52" cy="88" r="5" fill="#6c3bff"/>
  <circle cx="52" cy="148" r="5" fill="#06b6d4"/>
  <circle cx="52" cy="192" r="5" fill="#374151"/>
  <text x="76" y="104" font-family="'Segoe UI', system-ui, sans-serif" font-size="58" font-weight="700" letter-spacing="-2" fill="#ffffff">Sriram </text>
  <text x="76" y="104" font-family="'Segoe UI', system-ui, sans-serif" font-size="58" font-weight="700" letter-spacing="-2" fill="#ffffff" dx="330">Eshwar</text>
  <text x="76" y="158" font-family="'Segoe UI', system-ui, sans-serif" font-size="58" font-weight="700" letter-spacing="-2" fill="#06b6d4">Chandra</text>
  <rect x="76" y="172" width="110" height="26" rx="13" fill="#1e0a3d" stroke="#4c1d95" stroke-width="1"/>
  <text x="131" y="189" font-family="'Segoe UI', system-ui, sans-serif" font-size="10" font-weight="600" fill="#a855f7" text-anchor="middle" letter-spacing="0.8">UI / UX DESIGN</text>
  <rect x="196" y="172" width="112" height="26" rx="13" fill="#00151f" stroke="#164e63" stroke-width="1"/>
  <text x="252" y="189" font-family="'Segoe UI', system-ui, sans-serif" font-size="10" font-weight="600" fill="#06b6d4" text-anchor="middle" letter-spacing="0.8">FLUTTER DEV</text>
  <rect x="318" y="172" width="100" height="26" rx="13" fill="#1f0a1f" stroke="#701a75" stroke-width="1"/>
  <text x="368" y="189" font-family="'Segoe UI', system-ui, sans-serif" font-size="10" font-weight="600" fill="#e879f9" text-anchor="middle" letter-spacing="0.8">AI BUILDER</text>
  <text x="76" y="228" font-family="'Segoe UI', system-ui, sans-serif" font-size="13" fill="#6b7280" letter-spacing="0.3">Crafting interfaces that feel inevitable.</text>
  <line x1="76" y1="248" x2="1124" y2="248" stroke="rgba(168,85,247,0.15)" stroke-width="0.5"/>
  <text x="1124" y="262" font-family="monospace" font-size="10" fill="#374151" text-anchor="end" letter-spacing="0.5">28.6139° N · 77.2090° E</text>
  <rect x="0" y="277" width="1200" height="3" fill="url(#bar)"/>
  <circle cx="1090" cy="88" r="54" fill="none" stroke="#a855f7" stroke-width="0.8" opacity="0.12"/>
  <circle cx="1090" cy="88" r="36" fill="none" stroke="#a855f7" stroke-width="0.8" opacity="0.12"/>
  <circle cx="1090" cy="88" r="18" fill="none" stroke="#a855f7" stroke-width="0.8" opacity="0.12"/>
  <line x1="1036" y1="88" x2="1144" y2="88" stroke="#a855f7" stroke-width="0.5" opacity="0.12"/>
  <line x1="1090" y1="34" x2="1090" y2="142" stroke="#a855f7" stroke-width="0.5" opacity="0.12"/>
</svg>
